<svg width="22" height="24" viewBox="0 0 22 24" fill="none" xmlns="http://www.w3.org/2000/svg">
<path d="M21.9197 22.1698C21.7332 18.5927 20.2414 15.0988 17.6773 12.312C17.5374 12.1456 17.5374 11.896 17.6773 11.7296C20.1947 8.90121 21.7332 5.40728 21.9197 1.87175C21.9197 1.78856 21.9197 0.998267 21.9197 0.499133C21.9197 0.207972 21.6866 0 21.3602 0H0.661251C0.381535 0 0.148438 0.207972 0.148438 0.457539V23.5425C0.148438 23.792 0.381535 24 0.661251 24H21.3602C21.6399 24 21.873 23.792 21.873 23.5425C21.9197 23.0849 21.9197 22.3362 21.9197 22.1698ZM10.8243 17.0121C11.9431 18.3016 12.7357 19.799 13.0154 21.338C13.062 21.6291 12.8289 21.8787 12.5026 21.8787H9.89187C9.33244 21.8787 9.09935 21.7123 9.00611 21.4211C8.72639 20.3397 8.07372 19.3414 7.23457 18.5095C6.95486 18.26 7.09471 17.844 7.46767 17.7192C8.40005 17.4697 9.33244 17.1785 10.2182 16.8042C10.4513 16.8042 10.6844 16.8458 10.8243 17.0121ZM14.9734 11.2721C14.7869 11.4385 14.6004 11.6049 14.4139 11.7712C13.3417 12.7279 12.1296 13.5598 10.7776 14.2253C10.5912 14.3085 10.4513 14.3917 10.2648 14.4749C9.93849 14.6412 9.56554 14.8076 9.2392 14.9324C7.32781 15.7227 5.22994 16.1802 3.08545 16.3466C2.75912 16.3882 2.52602 16.1386 2.52602 15.8891V13.5182C2.52602 13.2686 2.75912 13.0607 2.99222 13.0607C4.20432 12.9359 5.3698 12.7279 6.48866 12.3536C8.2602 11.7712 9.84525 10.9393 11.2438 9.81629C11.3837 9.69151 11.5702 9.56672 11.71 9.40035C11.9897 9.15078 12.2228 8.90121 12.4559 8.65165C14.1342 6.90468 15.1599 4.78336 15.4862 2.53726C15.5328 2.28769 15.7193 2.12132 15.999 2.12132H18.936C19.2624 2.12132 19.4954 2.37088 19.4488 2.62045C19.0759 5.57366 17.7239 8.40208 15.5328 10.7314C15.3463 10.9393 15.1599 11.1057 14.9734 11.2721ZM10.4047 7.487C10.2648 7.61179 10.125 7.73657 10.0317 7.86135C9.75202 8.11092 9.4723 8.31889 9.19258 8.52686C7.46767 9.81629 5.3698 10.6066 3.13207 10.8562C2.80574 10.8977 2.57264 10.6482 2.57264 10.3986V7.98614C2.57264 7.73657 2.75912 7.57019 3.03883 7.5286C4.06446 7.36222 5.09009 6.98787 5.97585 6.48874C7.56091 5.53206 8.67977 4.11785 9.09934 2.49567C9.14596 2.28769 9.37906 2.12132 9.61216 2.12132H12.3627C12.9221 2.12132 13.2018 2.37088 13.1086 2.70364C12.689 4.45061 11.7566 6.11438 10.4047 7.487ZM16.1389 13.9757C18.0036 16.1386 19.1225 18.7175 19.4488 21.3796C19.4954 21.6707 19.2157 21.8787 18.936 21.8787H15.999C15.7193 21.8787 15.5328 21.7123 15.4862 21.4627C15.2065 19.5494 14.3673 17.636 13.062 16.0555C12.8755 15.8475 12.9221 15.5147 13.2018 15.3899C13.9478 14.9324 14.6937 14.4333 15.393 13.8925C15.5794 13.7262 15.9524 13.7678 16.1389 13.9757Z" fill="white"/>
</svg>
