<svg width="22" height="24" viewBox="0 0 22 24" fill="none" xmlns="http://www.w3.org/2000/svg">
<path d="M0 1.83016C0.186477 5.40728 1.67829 8.90121 4.24236 11.688C4.38221 11.8544 4.38221 12.104 4.24236 12.2704C1.67829 15.1404 0.186477 18.5927 0 22.1698C0 22.253 0 23.0433 0 23.5425C0 23.792 0.233096 24 0.512812 24H21.2118C21.4915 24 21.7246 23.792 21.7246 23.5425V0.457539C21.7246 0.207972 21.4915 0 21.2118 0H0.559431C0.233096 0 0 0.207972 0 0.457539C0 0.956672 0 1.66378 0 1.83016ZM11.0954 7.02946C9.97653 5.74003 9.184 4.24263 8.90428 2.70364C8.85767 2.41248 9.09076 2.16291 9.4171 2.16291H12.0278C12.5872 2.16291 12.8203 2.32929 12.9135 2.62045C13.1933 3.70191 13.8459 4.70017 14.6851 5.53206C14.9648 5.78163 14.8249 6.19757 14.452 6.32236C13.5196 6.57192 12.5872 6.86308 11.7014 7.23743C11.515 7.23743 11.2352 7.19584 11.0954 7.02946ZM6.94627 12.7279C7.13275 12.5615 7.31923 12.3951 7.50571 12.2288C8.57795 11.2721 9.79005 10.4402 11.142 9.7747C11.3285 9.69151 11.4683 9.60832 11.6548 9.52513C11.9812 9.35875 12.3541 9.19237 12.6804 9.06759C14.5918 8.2773 16.6897 7.81976 18.8342 7.65338C19.1605 7.61178 19.3936 7.86135 19.3936 8.11092V10.4818C19.3936 10.7314 19.1605 10.9393 18.9274 10.9393C17.7153 11.0641 16.5498 11.2721 15.431 11.6464C13.6595 12.2288 12.0744 13.0607 10.6758 14.1837C10.536 14.3085 10.3495 14.4333 10.2096 14.5997C9.92991 14.8492 9.69681 15.0988 9.46371 15.3484C7.78542 17.0953 6.7598 19.2166 6.43346 21.4627C6.38684 21.7123 6.20037 21.8787 5.92065 21.8787H2.98363C2.6573 21.8787 2.4242 21.6291 2.47082 21.3796C2.79716 18.4263 4.19574 15.5979 6.38684 13.3102C6.57332 13.1023 6.7598 12.9359 6.94627 12.7279ZM11.515 16.5546C11.6548 16.4298 11.7947 16.305 11.8879 16.1802C12.1676 15.9307 12.4473 15.7227 12.7271 15.5147C14.452 14.2253 16.5498 13.435 18.7876 13.1854C19.1139 13.1438 19.347 13.3934 19.347 13.643V16.0555C19.347 16.305 19.1605 16.4714 18.8808 16.513C17.8552 16.6794 16.8296 17.0537 15.9438 17.5529C14.3587 18.5095 13.2399 19.9237 12.8203 21.5459C12.7737 21.7539 12.5406 21.9203 12.3075 21.9203H9.55695C8.99752 21.9203 8.71781 21.6707 8.81104 21.338C9.23062 19.591 10.163 17.8856 11.515 16.5546ZM5.78079 10.0659C3.96264 7.90295 2.79716 5.2825 2.47082 2.62045C2.4242 2.37088 2.6573 2.12132 2.98363 2.12132H5.92065C6.20037 2.12132 6.38684 2.28769 6.43346 2.53726C6.71318 4.45061 7.55232 6.36395 8.85766 7.94454C9.04414 8.15251 8.99752 8.48527 8.71781 8.61005C7.9719 9.06759 7.22599 9.56672 6.5267 10.1075C6.34022 10.3154 5.96727 10.2738 5.78079 10.0659Z" fill="white"/>
</svg>
