<svg width="93" height="10" viewBox="0 0 93 10" fill="none" xmlns="http://www.w3.org/2000/svg">
<path d="M3.32545 3.92457L8.35415 0.457415H11.6427L5.5222 4.81782L12.0529 9.54877H8.47325L3.32545 5.77063V9.54877H0.857422V0.457415H3.32545V3.92457Z" fill="white"/>
<path d="M21.8456 2.51521C21.7794 2.49315 21.6824 2.46448 21.5545 2.42919C21.431 2.38949 21.2854 2.352 21.1178 2.31671C20.9502 2.27701 20.7649 2.24393 20.562 2.21746C20.3635 2.19099 20.1584 2.17776 19.9466 2.17776C19.5055 2.17776 19.0931 2.2329 18.7093 2.34318C18.3299 2.44904 17.9748 2.59241 17.644 2.77326C17.3132 2.94971 17.0044 3.15262 16.7177 3.382C16.4354 3.60697 16.1751 3.83855 15.9369 4.07675V9.54877H13.4821V0.457415H15.9369V1.93294C16.2324 1.71238 16.5346 1.50065 16.8434 1.29774C17.1566 1.09041 17.4808 0.907351 17.816 0.74855C18.1557 0.589749 18.513 0.464031 18.8879 0.371398C19.2629 0.274353 19.6599 0.22583 20.079 0.22583C20.2378 0.22583 20.3988 0.234652 20.562 0.252297C20.7296 0.26553 20.8906 0.283175 21.045 0.305231C21.2038 0.327286 21.3516 0.351548 21.4883 0.378014C21.6251 0.404481 21.7442 0.430948 21.8456 0.457415V2.51521Z" fill="white"/>
<path d="M23.4072 9.54877V0.457415H25.862V9.54877H23.4072Z" fill="white"/>
<path d="M38.9299 3.56065C38.9299 4.015 38.8638 4.43405 38.7314 4.81782C38.5991 5.19718 38.3852 5.52581 38.0896 5.80371C37.7985 6.0772 37.4191 6.29114 36.9516 6.44553C36.484 6.59992 35.9149 6.67712 35.2444 6.67712H31.1686V9.54877H28.7138V0.457415H35.2444C35.9149 0.457415 36.484 0.53461 36.9516 0.689C37.4191 0.838978 37.7985 1.05292 38.0896 1.33082C38.3852 1.60431 38.5991 1.93073 38.7314 2.31009C38.8638 2.68945 38.9299 3.1063 38.9299 3.56065ZM36.4487 3.60035C36.4487 3.38862 36.4178 3.20776 36.356 3.05778C36.2987 2.90339 36.2017 2.77767 36.0649 2.68063C35.9282 2.58358 35.7495 2.513 35.529 2.46889C35.3084 2.42037 35.0371 2.39611 34.7151 2.39611H31.1686V4.73842H34.7151C35.0371 4.73842 35.3084 4.72078 35.529 4.68549C35.7495 4.64579 35.9282 4.58183 36.0649 4.4936C36.2017 4.40097 36.2987 4.28187 36.356 4.1363C36.4178 3.99074 36.4487 3.81208 36.4487 3.60035Z" fill="white"/>
<path d="M46.0628 2.43581V9.54877H43.608V2.43581H39.7504V0.457415H49.9269V2.43581H46.0628Z" fill="white"/>
<path d="M63.3191 5.00971C63.3191 5.79048 63.1758 6.48082 62.889 7.08074C62.6023 7.67624 62.1921 8.1747 61.6583 8.57611C61.1246 8.97753 60.4761 9.28189 59.713 9.48922C58.9543 9.69213 58.1007 9.79359 57.1524 9.79359C56.204 9.79359 55.346 9.69213 54.5785 9.48922C53.8153 9.28189 53.1647 8.97753 52.6265 8.57611C52.0884 8.1747 51.6737 7.67624 51.3826 7.08074C51.0914 6.48082 50.9459 5.79048 50.9459 5.00971C50.9459 4.22894 51.0914 3.5408 51.3826 2.9453C51.6737 2.34538 52.0884 1.84472 52.6265 1.4433C53.1647 1.04189 53.8153 0.739728 54.5785 0.536815C55.346 0.329492 56.204 0.22583 57.1524 0.22583C58.1007 0.22583 58.9543 0.329492 59.713 0.536815C60.4761 0.739728 61.1246 1.04189 61.6583 1.4433C62.1921 1.84472 62.6023 2.34538 62.889 2.9453C63.1758 3.5408 63.3191 4.22894 63.3191 5.00971ZM60.8379 5.00971C60.8379 4.67005 60.7827 4.3326 60.6724 3.99735C60.5666 3.65769 60.3747 3.35333 60.0968 3.08425C59.8233 2.81517 59.4483 2.59682 58.9719 2.42919C58.4955 2.26157 57.889 2.17776 57.1524 2.17776C56.6583 2.17776 56.2238 2.21746 55.8489 2.29686C55.4739 2.37185 55.1497 2.47772 54.8762 2.61446C54.6027 2.75121 54.3733 2.91221 54.1881 3.09748C54.0028 3.27834 53.855 3.47463 53.7447 3.68637C53.6345 3.89369 53.5551 4.11204 53.5065 4.34142C53.4624 4.56639 53.4404 4.78915 53.4404 5.00971C53.4404 5.23468 53.4624 5.46185 53.5065 5.69123C53.5551 5.92061 53.6345 6.14116 53.7447 6.3529C53.855 6.56022 54.0028 6.75431 54.1881 6.93517C54.3733 7.11603 54.6027 7.27483 54.8762 7.41157C55.1497 7.54391 55.4739 7.64977 55.8489 7.72917C56.2238 7.80416 56.6583 7.84166 57.1524 7.84166C57.889 7.84166 58.4955 7.75785 58.9719 7.59022C59.4483 7.4226 59.8233 7.20425 60.0968 6.93517C60.3747 6.66609 60.5666 6.36393 60.6724 6.02868C60.7827 5.68902 60.8379 5.34937 60.8379 5.00971Z" fill="white"/>
<path d="M75.924 7.04104C75.924 7.39393 75.8776 7.7005 75.785 7.96076C75.6924 8.22102 75.5622 8.44598 75.3946 8.63566C75.2314 8.82093 75.0329 8.97311 74.7991 9.09222C74.5697 9.20691 74.3139 9.29954 74.0316 9.37012C73.7537 9.43628 73.4559 9.4826 73.1383 9.50907C72.8207 9.53553 72.4921 9.54877 72.1524 9.54877H65.5556V0.457415H72.0333C72.2936 0.457415 72.5538 0.468443 72.8141 0.490498C73.0788 0.512554 73.3302 0.55446 73.5684 0.616216C73.8066 0.67356 74.0272 0.755167 74.2301 0.861034C74.4374 0.966901 74.616 1.10585 74.766 1.27789C74.9204 1.44992 75.0395 1.65724 75.1233 1.89986C75.2115 2.14247 75.2557 2.42919 75.2557 2.76003C75.2557 3.35112 75.1101 3.82091 74.819 4.16939C74.5278 4.51345 74.0691 4.74283 73.4427 4.85752C73.8838 4.8884 74.2609 4.95677 74.5741 5.06264C74.8917 5.1641 75.1498 5.30525 75.3483 5.48611C75.5468 5.66256 75.6924 5.88091 75.785 6.14116C75.8776 6.39701 75.924 6.69697 75.924 7.04104ZM72.8604 3.15041C72.8604 3.03572 72.8428 2.92765 72.8075 2.8262C72.7722 2.72033 72.7082 2.62769 72.6156 2.54829C72.523 2.46889 72.3972 2.40493 72.2384 2.35641C72.0796 2.30789 71.8767 2.28363 71.6297 2.28363H68.0104V3.99074H71.6297C71.8767 3.99074 72.0796 3.96868 72.2384 3.92457C72.3972 3.88046 72.523 3.82091 72.6156 3.74592C72.7082 3.67093 72.7722 3.58271 72.8075 3.48125C72.8428 3.37538 72.8604 3.2651 72.8604 3.15041ZM73.4294 6.75652C73.4294 6.54919 73.3942 6.38378 73.3236 6.26027C73.253 6.13234 73.1427 6.0353 72.9927 5.96913C72.8428 5.89855 72.6487 5.85224 72.4105 5.83018C72.1723 5.80812 71.8878 5.7971 71.5569 5.7971H68.0104V7.72256H71.5569C71.8878 7.72256 72.1723 7.71153 72.4105 7.68947C72.6487 7.66742 72.8428 7.6211 72.9927 7.55052C73.1427 7.47994 73.253 7.3829 73.3236 7.25939C73.3942 7.13146 73.4294 6.96384 73.4294 6.75652Z" fill="white"/>
<path d="M78.167 9.54877V0.457415H80.6218V9.54877H78.167Z" fill="white"/>
<path d="M88.5685 2.43581V9.54877H86.1137V2.43581H82.2561V0.457415H92.4326V2.43581H88.5685Z" fill="white"/>
</svg>
