<svg width="585" height="480" viewBox="0 0 585 480" fill="none" xmlns="http://www.w3.org/2000/svg">
<path fill-rule="evenodd" clip-rule="evenodd" d="M368.571 480V420H317.679V480H317.143V420H266.25V480H265.714V420H214.821V480H214.286V420H163.393V480H162.857V420L111.964 420V480H111.429V420H60.5357L60.5357 480H60L60 420L2.76277e-05 420L2.76512e-05 419.464L60 419.464V368.571L2.98757e-05 368.571L2.98992e-05 368.036L60 368.036L60 317.143L0 317.143L2.34171e-08 316.607L60 316.607L60 265.714H2.24801e-06L2.27143e-06 265.179L60 265.179V214.286L4.49603e-06 214.286L4.51945e-06 213.75L60 213.75L60 162.857L6.74404e-06 162.857L6.76746e-06 162.321L60 162.321V111.429H8.99206e-06L9.01547e-06 110.893H60L60 60L1.12401e-05 60L1.12635e-05 59.4643L60 59.4643V0L60.5357 2.34176e-08V59.4643L111.429 59.4643L111.429 0L111.964 2.34185e-08L111.964 59.4643L162.857 59.4643V0L163.393 2.34176e-08V59.4643H214.286V0L214.821 2.34176e-08V59.4643H265.714V0L266.25 2.34176e-08V59.4643H317.143V0L317.679 2.34181e-08V59.4643L368.571 59.4643V0L369.107 2.34176e-08V59.4643H420V0L420.536 2.34181e-08V59.4643H480V60H420.536V110.893H480V111.429H420.536V162.321H480V162.857H420.536V213.75H480V214.286H420.536V265.179H480V265.714H420.536V316.607H480V317.143H420.536V368.036H480V368.571H420.536L420.536 419.464H480V420H420.536V480H420V420H369.107V480H368.571ZM317.679 368.571H368.571V419.464H317.679V368.571ZM317.679 368.036H368.571V317.143H317.679V368.036ZM369.107 419.464V368.571H420V419.464H369.107ZM60.5357 60L60.5357 110.893H111.429V60L60.5357 60ZM60.5357 111.429V162.321H111.429V111.429H60.5357ZM60.5357 162.857L60.5357 213.75H111.429V162.857H60.5357ZM60.5357 214.286V265.179H111.429L111.429 214.286H60.5357ZM60.5357 265.714L60.5357 316.607H111.429V265.714H60.5357ZM60.5357 317.143L60.5357 368.036H111.429V317.143H60.5357ZM60.5357 368.571V419.464H111.429L111.429 368.571H60.5357ZM214.286 419.464H163.393V368.571H214.286V419.464ZM214.286 368.036H163.393V317.143H214.286V368.036ZM162.857 368.036V317.143L111.964 317.143V368.036L162.857 368.036ZM214.286 316.607H163.393V265.714H214.286V316.607ZM162.857 316.607V265.714H111.964V316.607L162.857 316.607ZM214.286 265.179H163.393V214.286H214.286V265.179ZM162.857 265.179V214.286H111.964L111.964 265.179H162.857ZM214.286 213.75H163.393V162.857H214.286V213.75ZM162.857 213.75V162.857H111.964V213.75H162.857ZM214.286 162.321H163.393L163.393 111.429L214.286 111.429L214.286 162.321ZM162.857 162.321L162.857 111.429H111.964V162.321H162.857ZM214.286 110.893L163.393 110.893V60H214.286V110.893ZM162.857 110.893V60L111.964 60V110.893H162.857ZM162.857 419.464V368.571L111.964 368.571L111.964 419.464L162.857 419.464ZM265.714 419.464H214.821V368.571H265.714V419.464ZM265.714 368.036H214.821V317.143H265.714V368.036ZM265.714 316.607H214.821V265.714H265.714V316.607ZM265.714 265.179H214.821V214.286H265.714V265.179ZM265.714 213.75H214.821V162.857H265.714V213.75ZM265.714 162.321H214.821L214.821 111.429H265.714L265.714 162.321ZM265.714 110.893H214.821V60H265.714V110.893ZM266.25 60V110.893H317.143V60L266.25 60ZM266.25 111.429L266.25 162.321L317.143 162.321V111.429H266.25ZM266.25 162.857V213.75L317.143 213.75V162.857L266.25 162.857ZM266.25 214.286V265.179L317.143 265.179V214.286L266.25 214.286ZM266.25 265.714V316.607H317.143V265.714H266.25ZM266.25 317.143V368.036H317.143L317.143 317.143H266.25ZM266.25 368.571V419.464H317.143V368.571H266.25ZM317.679 60L368.571 60V110.893H317.679V60ZM369.107 110.893V60H420V110.893L369.107 110.893ZM317.679 111.429H368.571L368.571 162.321H317.679V111.429ZM369.107 111.429V162.321H420V111.429L369.107 111.429ZM317.679 162.857H368.571V213.75H317.679V162.857ZM369.107 162.857V213.75H420V162.857H369.107ZM317.679 214.286H368.571V265.179H317.679V214.286ZM369.107 214.286V265.179H420V214.286H369.107ZM317.679 265.714H368.571V316.607H317.679V265.714ZM369.107 265.714V316.607H420V265.714H369.107ZM420 317.143H369.107V368.036H420V317.143Z" fill="url(#paint0_radial_32_485)"/>
<circle cx="132" cy="240" r="131.5" stroke="#6A6D70"/>
<circle cx="132" cy="240" r="131.5" stroke="white"/>
<g filter="url(#filter0_d_32_485)">
<circle cx="348" cy="240" r="132" fill="url(#paint1_linear_32_485)"/>
</g>
<path d="M240.313 86.0726L240.235 87.5705L240.313 86.0726ZM282.22 111.3L279.698 94.1643L266.119 104.916L282.22 111.3ZM240.235 87.5705C252.956 88.2372 264.328 93.5545 272.793 101.791L274.885 99.6406C265.919 90.9166 253.867 85.2808 240.392 84.5746L240.235 87.5705ZM197.199 107.683C206.963 94.6995 222.798 86.6567 240.235 87.5705L240.392 84.5746C221.916 83.6063 205.14 92.1325 194.801 105.88L197.199 107.683Z" fill="white"/>
<path d="M237.905 393.228L237.984 391.73L237.905 393.228ZM195.999 368L198.521 385.136L212.1 374.384L195.999 368ZM237.984 391.73C225.262 391.063 213.891 385.746 205.426 377.509L203.334 379.66C212.3 388.384 224.352 394.019 237.827 394.726L237.984 391.73ZM281.02 371.617C271.256 384.601 255.421 392.644 237.984 391.73L237.827 394.726C256.303 395.694 273.079 387.168 283.418 373.42L281.02 371.617Z" fill="white"/>
<defs>
<filter id="filter0_d_32_485" x="111" y="3" width="474" height="474" filterUnits="userSpaceOnUse" color-interpolation-filters="sRGB">
<feFlood flood-opacity="0" result="BackgroundImageFix"/>
<feColorMatrix in="SourceAlpha" type="matrix" values="0 0 0 0 0 0 0 0 0 0 0 0 0 0 0 0 0 0 127 0" result="hardAlpha"/>
<feMorphology radius="3" operator="erode" in="SourceAlpha" result="effect1_dropShadow_32_485"/>
<feOffset/>
<feGaussianBlur stdDeviation="54"/>
<feComposite in2="hardAlpha" operator="out"/>
<feColorMatrix type="matrix" values="0 0 0 0 0.717647 0 0 0 0 0.462745 0 0 0 0 0.823529 0 0 0 1 0"/>
<feBlend mode="normal" in2="BackgroundImageFix" result="effect1_dropShadow_32_485"/>
<feBlend mode="normal" in="SourceGraphic" in2="effect1_dropShadow_32_485" result="shape"/>
</filter>
<radialGradient id="paint0_radial_32_485" cx="0" cy="0" r="1" gradientUnits="userSpaceOnUse" gradientTransform="translate(240 240) rotate(90) scale(311.053)">
<stop stop-color="#C4C4C4"/>
<stop offset="0.467226" stop-color="#C4C4C4" stop-opacity="0.242329"/>
<stop offset="1" stop-color="#C4C4C4" stop-opacity="0"/>
</radialGradient>
<linearGradient id="paint1_linear_32_485" x1="229.5" y1="154" x2="561.649" y2="439.827" gradientUnits="userSpaceOnUse">
<stop offset="0.0327207" stop-color="#FC3FD1"/>
<stop offset="0.608727" stop-color="#55C3D3"/>
<stop offset="1" stop-color="#55C3D3"/>
</linearGradient>
</defs>
</svg>
